<svg width="62" height="75" viewBox="0 0 62 75" version="1.1" xmlns="http://www.w3.org/2000/svg" xmlns:xlink="http://www.w3.org/1999/xlink">
<title>marker_big</title>
<desc>Created using Figma</desc>
<g id="Canvas" transform="translate(-3036 -3547)">
<g id="marker_big" filter="url(#filter0_d)">
<g id="Ellipse 10" opacity="0.2">
<use xlink:href="#path0_fill" transform="translate(3053 3604)" fill="#282726"/>
</g>
<g id="Ellipse 7">
<use xlink:href="#path1_fill" transform="translate(3046 3553)" fill="url(#paint1_linear)"/>
</g>
</g>
</g>
<defs>
<filter id="filter0_d" filterUnits="userSpaceOnUse" x="3036" y="3547" width="62" height="75" color-interpolation-filters="sRGB">
<feFlood flood-opacity="0" result="BackgroundImageFix"/>
<feColorMatrix in="SourceAlpha" type="matrix" values="0 0 0 0 0 0 0 0 0 0 0 0 0 0 0 0 0 0 255 0"/>
<feOffset dx="0" dy="4"/>
<feGaussianBlur stdDeviation="5"/>
<feColorMatrix type="matrix" values="0 0 0 0 0 0 0 0 0 0 0 0 0 0 0 0 0 0 0.25 0"/>
<feBlend mode="normal" in2="BackgroundImageFix" result="effect1_dropShadow"/>
<feBlend mode="normal" in="SourceGraphic" in2="effect1_dropShadow" result="shape"/>
</filter>
<linearGradient id="paint1_linear" x1="0" y1="0" x2="1" y2="0" gradientUnits="userSpaceOnUse" gradientTransform="matrix(2.51816e-15 52.2222 -41.1247 3.19769e-15 41.1247 -3.19769e-15)">
<stop offset="0" stop-color="#FF9023"/>
<stop offset="0.966851" stop-color="#DE760F"/>
</linearGradient>
<path id="path0_fill" d="M 26 2C 26 3.10457 20.1797 4 13 4C 5.8203 4 0 3.10457 0 2C 0 0.895431 5.8203 0 13 0C 20.1797 0 26 0.895431 26 2Z"/>
<path id="path1_fill" d="M 41.1247 20.0855C 41.1247 31.1784 20.5623 52.2222 20.5623 52.2222C 20.5623 52.2222 0 31.1784 0 20.0855C 0 8.99257 9.20608 0 20.5623 0C 31.9186 0 41.1247 8.99257 41.1247 20.0855Z"/>
</defs>
</svg>
