<svg width="53" height="63" viewBox="0 0 53 63" version="1.1" xmlns="http://www.w3.org/2000/svg" xmlns:xlink="http://www.w3.org/1999/xlink">
<title>marker</title>
<desc>Created using Figma</desc>
<g id="Canvas" transform="translate(-1133 -3562)">
<g id="marker" filter="url(#filter0_d)">
<g id="Ellipse 11" opacity="0.2">
<use xlink:href="#path0_fill" transform="translate(1149.36 3606.67)" fill="#282726"/>
</g>
<g id="Ellipse 7">
<use xlink:href="#path1_fill" transform="translate(1143.36 3568)" fill="url(#paint1_linear)"/>
</g>
</g>
</g>
<defs>
<filter id="filter0_d" filterUnits="userSpaceOnUse" x="1133" y="3562" width="53" height="63" color-interpolation-filters="sRGB">
<feFlood flood-opacity="0" result="BackgroundImageFix"/>
<feColorMatrix in="SourceAlpha" type="matrix" values="0 0 0 0 0 0 0 0 0 0 0 0 0 0 0 0 0 0 255 0"/>
<feOffset dx="0" dy="4"/>
<feGaussianBlur stdDeviation="5"/>
<feColorMatrix type="matrix" values="0 0 0 0 0 0 0 0 0 0 0 0 0 0 0 0 0 0 0.25 0"/>
<feBlend mode="normal" in2="BackgroundImageFix" result="effect1_dropShadow"/>
<feBlend mode="normal" in="SourceGraphic" in2="effect1_dropShadow" result="shape"/>
</filter>
<linearGradient id="paint1_linear" x1="0" y1="0" x2="1" y2="0" gradientUnits="userSpaceOnUse" gradientTransform="matrix(1.95943e-15 40.6352 -32 2.48819e-15 32 -2.48819e-15)">
<stop offset="0" stop-color="#FFFFFF"/>
<stop offset="1" stop-color="#FCEAD8"/>
</linearGradient>
<path id="path0_fill" d="M 20 2C 20 3.10457 15.5228 4 10 4C 4.47715 4 0 3.10457 0 2C 0 0.895431 4.47715 0 10 0C 15.5228 0 20 0.895431 20 2Z"/>
<path id="path1_fill" d="M 32 15.6289C 32 24.2606 16 40.6352 16 40.6352C 16 40.6352 0 24.2606 0 15.6289C 0 6.99731 7.16344 0 16 0C 24.8366 0 32 6.99731 32 15.6289Z"/>
</defs>
</svg>
